<?xml version="1.0" standalone="no"?>
<!DOCTYPE svg PUBLIC "-//W3C//DTD SVG 20010904//EN"
 "http://www.w3.org/TR/2001/REC-SVG-20010904/DTD/svg10.dtd">
<svg version="1.0" xmlns="http://www.w3.org/2000/svg"
 width="512.000000pt" height="512.000000pt" viewBox="0 0 512.000000 512.000000"
 preserveAspectRatio="xMidYMid meet">

<g transform="translate(0.000000,512.000000) scale(0.100000,-0.100000)"
fill="#000000" stroke="none">
<path d="M2863 4156 c-88 -39 -95 -175 -11 -226 28 -17 50 -20 150 -20 l117 0
69 -177 70 -178 -342 -6 c-324 -5 -344 -6 -399 -28 -111 -44 -194 -131 -237
-250 -51 -139 -44 -136 -335 -136 -262 0 -237 -6 -434 109 -51 30 -115 60
-143 65 -29 7 -192 11 -405 11 -341 0 -359 -1 -400 -21 -51 -25 -96 -76 -112
-128 -14 -47 -15 -273 -1 -320 5 -19 23 -52 40 -72 16 -21 30 -40 30 -42 0 -2
-31 -27 -69 -55 -37 -28 -93 -78 -124 -112 -60 -64 -74 -103 -63 -165 14 -73
105 -138 170 -121 14 3 64 41 111 84 156 143 337 234 525 263 99 15 275 6 372
-20 343 -90 608 -369 682 -717 l13 -62 -446 -7 c-491 -8 -491 -8 -517 -70 -18
-43 -18 -77 0 -120 24 -57 54 -65 231 -65 121 0 155 -3 155 -13 0 -23 -55
-101 -100 -141 -23 -21 -68 -50 -99 -65 -49 -23 -69 -26 -156 -26 -89 0 -106
3 -156 28 -79 38 -140 95 -176 164 -81 154 -62 318 52 441 131 142 332 166
493 60 l43 -28 215 0 c166 0 214 3 214 13 0 32 -83 150 -161 228 -74 75 -99
93 -190 137 -134 66 -234 87 -374 79 -598 -33 -915 -722 -552 -1200 157 -207
432 -322 686 -287 190 26 362 119 478 260 64 76 136 215 154 294 l12 56 393 0
c531 0 608 12 710 115 67 67 95 127 320 677 99 241 181 438 184 438 3 0 97
-235 209 -523 252 -643 251 -641 293 -667 55 -33 115 -22 164 32 44 47 40 73
-30 255 -36 93 -66 174 -66 179 0 19 100 -3 166 -36 73 -36 136 -101 172 -178
24 -50 27 -69 27 -162 0 -95 -3 -111 -28 -162 -39 -79 -104 -143 -185 -181
-61 -29 -76 -32 -162 -32 -83 0 -103 4 -156 28 -77 36 -154 113 -191 192 -31
68 -43 184 -24 251 10 36 6 50 -66 234 -42 107 -78 197 -81 200 -2 3 -26 -20
-54 -50 -57 -63 -130 -205 -155 -300 -26 -98 -23 -273 5 -373 62 -219 213
-395 416 -487 101 -46 186 -63 311 -63 212 1 368 67 520 218 100 100 154 189
196 325 31 98 33 290 5 390 -58 213 -206 391 -401 485 -115 56 -183 70 -332
70 l-133 0 -99 250 -98 250 86 5 c90 6 113 14 146 50 19 21 20 37 20 244 0
161 -3 227 -13 243 -23 42 -69 57 -172 57 -108 0 -170 -21 -227 -76 l-32 -31
-9 24 c-158 412 -257 648 -283 674 l-29 30 -183 2 c-139 2 -189 0 -214 -11z"/>
</g>
</svg>
