<?xml version="1.0" standalone="no"?>
<!DOCTYPE svg PUBLIC "-//W3C//DTD SVG 20010904//EN"
 "http://www.w3.org/TR/2001/REC-SVG-20010904/DTD/svg10.dtd">
<svg version="1.0" xmlns="http://www.w3.org/2000/svg"
 width="512.000000pt" height="512.000000pt" viewBox="0 0 512.000000 512.000000"
 preserveAspectRatio="xMidYMid meet">

<g transform="translate(0.000000,512.000000) scale(0.100000,-0.100000)"
fill="#000000" stroke="none">
<path d="M3309 4647 c-25 -7 -92 -43 -150 -79 -58 -36 -142 -84 -186 -106 -82
-42 -129 -85 -152 -139 -9 -21 -25 -36 -51 -47 -53 -21 -80 -59 -80 -113 0
-37 5 -50 31 -74 27 -25 39 -29 90 -29 47 0 68 -5 98 -26 22 -14 58 -28 81
-31 30 -4 44 -12 51 -27 8 -19 346 -1234 401 -1439 16 -62 21 -111 21 -197 0
-143 -18 -224 -80 -350 -159 -324 -621 -525 -902 -393 -65 31 -159 120 -190
181 -43 84 -54 156 -47 298 11 233 62 466 140 638 28 60 39 74 62 80 112 28
179 193 140 344 -34 135 -108 231 -219 283 -154 72 -339 66 -609 -20 -293 -93
-507 -95 -1010 -11 -259 44 -327 39 -421 -30 -176 -129 -199 -454 -39 -548 39
-22 60 -26 165 -31 l119 -6 -73 -50 c-111 -75 -305 -271 -379 -385 -102 -156
-114 -185 -115 -265 0 -85 27 -142 93 -192 37 -28 52 -33 97 -33 51 0 58 3
116 52 228 195 415 269 679 269 192 1 347 -43 510 -142 106 -65 248 -206 312
-309 94 -151 148 -336 148 -507 0 -70 4 -95 16 -108 14 -14 78 -15 628 -13
l611 3 46 27 c89 53 118 103 148 255 72 372 328 654 685 758 297 85 616 26
865 -162 55 -41 101 -44 136 -8 38 37 32 70 -33 171 -148 228 -361 412 -608
525 l-94 44 0 45 c0 72 -35 219 -75 321 -102 257 -269 494 -541 766 -113 112
-148 153 -136 157 9 2 32 8 51 11 44 9 103 70 119 121 34 116 -3 275 -90 387
-84 106 -258 168 -379 134z"/>
<path d="M835 1925 c-149 -33 -278 -107 -387 -223 -121 -129 -186 -280 -195
-457 -19 -355 199 -659 544 -757 100 -28 274 -30 373 -4 262 70 464 271 536
536 24 87 24 271 1 360 -57 217 -224 415 -423 500 -130 56 -315 75 -449 45z"/>
<path d="M4215 1926 c-355 -82 -585 -367 -585 -726 0 -199 63 -357 197 -501
297 -315 779 -315 1076 0 134 144 197 302 197 501 0 335 -202 608 -525 710
-89 28 -272 36 -360 16z"/>
</g>
</svg>
